<svg width="1300" height="1399" viewBox="0 0 1300 1399" fill="none" xmlns="http://www.w3.org/2000/svg">
<g clip-path="url(#clip0_2004_7)">
<path d="M1169.92 696.753C1169.92 812.779 1154.15 910.519 1122.62 989.972C1091.1 1069.42 1043.8 1130.59 980.744 1173.47C917.686 1215.09 840.125 1239.05 748.06 1245.36C719.054 1246.62 689.416 1247.25 659.149 1247.25C627.62 1247.25 597.982 1246.62 570.237 1245.36C476.911 1239.05 399.35 1213.2 337.554 1167.79C274.496 1122.39 227.202 1059.97 195.673 980.513C164.144 901.06 148.38 806.473 148.38 696.753C148.38 587.032 164.144 492.445 195.673 412.992C227.202 333.539 274.496 271.112 337.553 225.71C399.35 180.309 476.911 154.455 570.237 148.149C597.982 145.627 627.62 144.366 659.149 144.366C689.416 144.366 719.054 145.627 748.06 148.149C840.125 154.455 917.686 179.048 980.744 221.927C1043.8 263.545 1091.09 324.081 1122.62 403.534C1154.15 482.986 1169.92 580.726 1169.92 696.753ZM867.24 696.753C867.24 660.179 857.15 637.478 836.972 628.65C815.532 619.822 782.742 614.147 738.602 611.625C719.684 610.363 693.2 609.733 659.149 609.733C625.097 609.733 598.613 610.363 579.696 611.625C538.077 614.147 506.549 619.822 485.109 628.65C462.408 637.478 451.058 660.179 451.058 696.753C451.058 732.065 462.408 754.766 485.109 764.855C506.549 773.683 538.078 779.358 579.696 781.881C598.613 783.142 625.097 783.773 659.149 783.773C693.2 783.773 719.684 783.142 738.602 781.881C782.742 779.358 815.532 773.683 836.972 764.855C857.15 754.766 867.24 732.065 867.24 696.753Z" fill="#4F76F6" fill-opacity="0.6"/>
<path d="M1069.16 696.767C1069.16 789.735 1056.53 868.05 1031.26 931.713C1006 995.375 968.106 1044.39 917.58 1078.74C867.054 1112.09 804.907 1131.29 731.14 1136.34C707.898 1137.35 684.151 1137.86 659.898 1137.86C634.635 1137.86 610.888 1137.35 588.657 1136.34C513.878 1131.29 451.732 1110.57 402.216 1074.2C351.69 1037.82 313.796 987.796 288.533 924.134C263.27 860.471 250.639 784.682 250.639 696.767C250.639 608.852 263.27 533.064 288.533 469.401C313.796 405.738 351.69 355.718 402.216 319.339C451.732 282.96 513.878 262.245 588.657 257.192C610.888 255.171 634.635 254.161 659.898 254.161C684.151 254.161 707.898 255.171 731.14 257.192C804.907 262.245 867.054 281.95 917.58 316.308C968.106 349.655 1006 398.159 1031.26 461.822C1056.53 525.485 1069.16 603.8 1069.16 696.767ZM826.634 696.767C826.634 667.462 818.549 649.273 802.381 642.199C785.202 635.126 758.929 630.578 723.561 628.557C708.403 627.547 687.182 627.042 659.898 627.042C632.614 627.042 611.393 627.547 596.236 628.557C562.888 630.578 537.626 635.126 520.447 642.199C502.257 649.273 493.163 667.462 493.163 696.767C493.163 725.062 502.257 743.251 520.447 751.335C537.626 758.409 562.889 762.956 596.236 764.977C611.393 765.988 632.614 766.493 659.898 766.493C687.182 766.493 708.403 765.988 723.561 764.977C758.929 762.956 785.202 758.409 802.381 751.335C818.549 743.251 826.634 725.062 826.634 696.767Z" fill="#4F76F6" fill-opacity="0.4"/>
<path d="M1008.85 697.36C1008.85 776.143 998.141 842.509 976.732 896.458C955.324 950.407 923.211 991.94 880.394 1021.06C837.578 1049.31 784.913 1065.58 722.4 1069.87C702.705 1070.72 682.581 1071.15 662.029 1071.15C640.62 1071.15 620.496 1070.72 601.657 1069.87C538.288 1065.58 485.623 1048.03 443.663 1017.2C400.846 986.373 368.733 943.985 347.325 890.036C325.916 836.086 315.212 771.861 315.212 697.36C315.212 622.858 325.916 558.633 347.325 504.684C368.733 450.735 400.846 408.346 443.663 377.518C485.623 346.69 538.288 329.135 601.657 324.853C620.496 323.14 640.62 322.284 662.029 322.284C682.581 322.284 702.705 323.14 722.4 324.853C784.913 329.135 837.578 345.833 880.394 374.949C923.211 403.208 955.324 444.312 976.732 498.261C998.141 552.211 1008.85 618.577 1008.85 697.36ZM803.324 697.36C803.324 672.526 796.473 657.112 782.772 651.118C768.214 645.123 745.95 641.27 715.978 639.557C703.133 638.701 685.15 638.272 662.029 638.272C638.907 638.272 620.924 638.701 608.079 639.557C579.82 641.27 558.412 645.123 543.854 651.118C528.44 657.112 520.733 672.526 520.733 697.36C520.733 721.337 528.44 736.751 543.854 743.602C558.412 749.596 579.82 753.45 608.079 755.162C620.924 756.019 638.907 756.447 662.029 756.447C685.15 756.447 703.133 756.019 715.978 755.162C745.95 753.45 768.214 749.596 782.772 743.602C796.473 736.751 803.324 721.337 803.324 697.36Z" fill="#4F76F6" fill-opacity="0.8"/>
</g>
<defs>
<clipPath id="clip0_2004_7">
<rect width="1300" height="1399" fill="white"/>
</clipPath>
</defs>
</svg>
