<svg width="1638" height="364" viewBox="0 0 1638 364" fill="none" xmlns="http://www.w3.org/2000/svg">
<path d="M491.95 261.254C475.269 261.254 462.044 256.445 452.276 246.827C442.508 237.209 437.248 223.534 436.497 205.8C436.346 204.298 436.271 202.419 436.271 200.165C436.271 197.76 436.346 195.882 436.497 194.529C437.098 183.258 439.652 173.49 444.161 165.225C448.82 156.959 455.207 150.647 463.322 146.289C471.437 141.781 480.98 139.526 491.95 139.526C504.123 139.526 514.342 142.081 522.608 147.191C530.873 152.15 537.11 159.138 541.318 168.155C545.526 177.022 547.63 187.316 547.63 199.038V203.772C547.63 205.274 547.104 206.552 546.052 207.604C545 208.656 543.647 209.182 541.994 209.182H467.154C467.154 209.182 467.154 209.407 467.154 209.858C467.154 210.309 467.154 210.685 467.154 210.985C467.304 216.245 468.281 221.129 470.084 225.638C472.038 229.996 474.818 233.527 478.425 236.232C482.182 238.937 486.615 240.29 491.725 240.29C495.933 240.29 499.464 239.689 502.32 238.487C505.175 237.134 507.504 235.631 509.308 233.978C511.111 232.325 512.389 230.973 513.14 229.921C514.493 228.117 515.544 227.065 516.296 226.765C517.198 226.314 518.475 226.088 520.128 226.088H539.514C541.017 226.088 542.219 226.539 543.121 227.441C544.173 228.343 544.624 229.47 544.474 230.822C544.323 233.227 543.046 236.157 540.641 239.614C538.387 243.07 535.081 246.452 530.723 249.758C526.365 253.064 520.879 255.844 514.267 258.098C507.805 260.202 500.366 261.254 491.95 261.254ZM467.154 190.246H516.972V189.57C516.972 183.709 515.995 178.6 514.042 174.241C512.088 169.883 509.233 166.427 505.476 163.872C501.719 161.317 497.21 160.04 491.95 160.04C486.69 160.04 482.182 161.317 478.425 163.872C474.668 166.427 471.813 169.883 469.859 174.241C468.056 178.6 467.154 183.709 467.154 189.57V190.246ZM576.968 259C575.465 259 574.188 258.474 573.136 257.422C572.084 256.37 571.558 255.093 571.558 253.59V147.191C571.558 145.688 572.084 144.411 573.136 143.359C574.188 142.307 575.465 141.781 576.968 141.781H595.678C597.331 141.781 598.608 142.307 599.51 143.359C600.562 144.411 601.088 145.688 601.088 147.191V253.59C601.088 255.093 600.562 256.37 599.51 257.422C598.608 258.474 597.331 259 595.678 259H576.968ZM576.066 122.394C574.413 122.394 573.06 121.944 572.009 121.042C571.107 119.99 570.656 118.637 570.656 116.984V100.754C570.656 99.2511 571.107 97.9737 572.009 96.9217C573.06 95.8698 574.413 95.3438 576.066 95.3438H596.579C598.233 95.3438 599.585 95.8698 600.637 96.9217C601.689 97.9737 602.215 99.2511 602.215 100.754V116.984C602.215 118.637 601.689 119.99 600.637 121.042C599.585 121.944 598.233 122.394 596.579 122.394H576.066ZM683.969 308.593C672.999 308.593 663.982 307.165 656.919 304.31C649.855 301.454 644.295 297.998 640.237 293.94C636.18 289.883 633.249 285.825 631.446 281.768C629.793 277.86 628.891 274.78 628.741 272.525C628.591 271.022 629.041 269.67 630.093 268.468C631.296 267.416 632.648 266.89 634.151 266.89H653.763C655.265 266.89 656.468 267.19 657.369 267.791C658.271 268.543 659.023 269.82 659.624 271.624C660.525 273.577 661.728 275.681 663.23 277.935C664.733 280.19 666.987 282.068 669.993 283.571C673.149 285.224 677.432 286.051 682.842 286.051C688.553 286.051 693.362 285.224 697.269 283.571C701.176 281.918 704.107 279.138 706.061 275.23C708.164 271.323 709.216 265.913 709.216 259V243.671C705.61 248.029 700.951 251.561 695.24 254.266C689.68 256.971 682.767 258.324 674.501 258.324C666.386 258.324 659.398 257.046 653.537 254.492C647.676 251.787 642.792 248.105 638.885 243.446C634.978 238.637 631.972 233.001 629.868 226.539C627.914 220.077 626.787 212.939 626.487 205.124C626.336 201.067 626.336 197.009 626.487 192.951C626.787 185.437 627.914 178.449 629.868 171.987C631.822 165.525 634.752 159.89 638.659 155.081C642.717 150.121 647.676 146.289 653.537 143.584C659.398 140.879 666.386 139.526 674.501 139.526C683.068 139.526 690.281 141.18 696.142 144.486C702.003 147.642 706.812 151.624 710.569 156.433V147.416C710.569 145.763 711.095 144.411 712.147 143.359C713.199 142.307 714.476 141.781 715.979 141.781H734.238C735.741 141.781 737.018 142.307 738.07 143.359C739.122 144.411 739.648 145.763 739.648 147.416L739.874 256.07C739.874 266.89 737.845 276.207 733.787 284.022C729.73 291.836 723.568 297.848 715.303 302.056C707.188 306.414 696.743 308.593 683.969 308.593ZM682.842 234.429C689.004 234.429 693.963 233.076 697.72 230.371C701.477 227.666 704.257 224.135 706.061 219.777C707.864 215.418 708.916 210.985 709.216 206.477C709.367 204.523 709.442 202.043 709.442 199.038C709.442 196.032 709.367 193.628 709.216 191.824C708.916 187.166 707.864 182.732 706.061 178.524C704.257 174.166 701.477 170.635 697.72 167.93C693.963 165.074 689.004 163.647 682.842 163.647C676.681 163.647 671.721 165.074 667.964 167.93C664.207 170.635 661.502 174.241 659.849 178.75C658.346 183.258 657.445 188.218 657.144 193.628C656.843 197.234 656.843 200.916 657.144 204.673C657.445 209.933 658.346 214.892 659.849 219.551C661.502 224.06 664.207 227.666 667.964 230.371C671.721 233.076 676.681 234.429 682.842 234.429ZM820.397 261.254C803.716 261.254 790.491 256.445 780.723 246.827C770.954 237.209 765.695 223.534 764.943 205.8C764.793 204.298 764.718 202.419 764.718 200.165C764.718 197.76 764.793 195.882 764.943 194.529C765.544 183.258 768.099 173.49 772.607 165.225C777.266 156.959 783.653 150.647 791.768 146.289C799.884 141.781 809.426 139.526 820.397 139.526C832.57 139.526 842.789 142.081 851.054 147.191C859.32 152.15 865.556 159.138 869.764 168.155C873.972 177.022 876.076 187.316 876.076 199.038V203.772C876.076 205.274 875.55 206.552 874.498 207.604C873.446 208.656 872.094 209.182 870.441 209.182H795.601C795.601 209.182 795.601 209.407 795.601 209.858C795.601 210.309 795.601 210.685 795.601 210.985C795.751 216.245 796.728 221.129 798.531 225.638C800.485 229.996 803.265 233.527 806.872 236.232C810.629 238.937 815.062 240.29 820.171 240.29C824.379 240.29 827.911 239.689 830.766 238.487C833.622 237.134 835.951 235.631 837.754 233.978C839.558 232.325 840.835 230.973 841.587 229.921C842.939 228.117 843.991 227.065 844.742 226.765C845.644 226.314 846.922 226.088 848.575 226.088H867.961C869.464 226.088 870.666 226.539 871.568 227.441C872.62 228.343 873.07 229.47 872.92 230.822C872.77 233.227 871.493 236.157 869.088 239.614C866.834 243.07 863.528 246.452 859.169 249.758C854.811 253.064 849.326 255.844 842.714 258.098C836.252 260.202 828.813 261.254 820.397 261.254ZM795.601 190.246H845.419V189.57C845.419 183.709 844.442 178.6 842.488 174.241C840.535 169.883 837.679 166.427 833.922 163.872C830.165 161.317 825.657 160.04 820.397 160.04C815.137 160.04 810.629 161.317 806.872 163.872C803.115 166.427 800.259 169.883 798.306 174.241C796.502 178.6 795.601 183.709 795.601 189.57V190.246ZM905.414 259C903.912 259 902.634 258.474 901.582 257.422C900.53 256.37 900.004 255.093 900.004 253.59V147.191C900.004 145.688 900.53 144.411 901.582 143.359C902.634 142.307 903.912 141.781 905.414 141.781H923.899C925.402 141.781 926.679 142.307 927.731 143.359C928.783 144.411 929.309 145.688 929.309 147.191V156.433C933.216 151.624 938.176 147.642 944.187 144.486C950.348 141.18 957.938 139.526 966.955 139.526C976.122 139.526 984.087 141.63 990.849 145.838C997.612 149.896 1002.8 155.682 1006.4 163.196C1010.16 170.71 1012.04 179.727 1012.04 190.246V253.59C1012.04 255.093 1011.51 256.37 1010.46 257.422C1009.41 258.474 1008.13 259 1006.63 259H986.792C985.289 259 984.011 258.474 982.959 257.422C981.908 256.37 981.382 255.093 981.382 253.59V191.599C981.382 182.883 979.202 176.045 974.844 171.085C970.636 166.126 964.475 163.647 956.36 163.647C948.545 163.647 942.308 166.126 937.65 171.085C932.991 176.045 930.662 182.883 930.662 191.599V253.59C930.662 255.093 930.136 256.37 929.084 257.422C928.032 258.474 926.754 259 925.252 259H905.414ZM1057.17 259C1055.66 259 1054.39 258.474 1053.33 257.422C1052.28 256.37 1051.76 255.093 1051.76 253.59V165.675H1033.5C1031.99 165.675 1030.72 165.149 1029.66 164.097C1028.61 163.045 1028.09 161.768 1028.09 160.265V147.191C1028.09 145.688 1028.61 144.411 1029.66 143.359C1030.72 142.307 1031.99 141.781 1033.5 141.781H1051.76V132.538C1051.76 123.521 1053.41 116.083 1056.71 110.222C1060.02 104.21 1064.91 99.7019 1071.37 96.6963C1077.83 93.6907 1086.02 92.1879 1095.94 92.1879H1111.27C1112.92 92.1879 1114.2 92.7138 1115.1 93.7658C1116.15 94.8178 1116.68 96.0952 1116.68 97.598V110.672C1116.68 112.175 1116.15 113.453 1115.1 114.505C1114.2 115.557 1112.92 116.083 1111.27 116.083H1096.84C1090.83 116.083 1086.7 117.585 1084.44 120.591C1082.19 123.597 1081.06 127.955 1081.06 133.665V141.781H1109.01C1110.67 141.781 1111.94 142.307 1112.84 143.359C1113.9 144.411 1114.42 145.688 1114.42 147.191V160.265C1114.42 161.768 1113.9 163.045 1112.84 164.097C1111.94 165.149 1110.67 165.675 1109.01 165.675H1081.06V253.59C1081.06 255.093 1080.53 256.37 1079.48 257.422C1078.43 258.474 1077.15 259 1075.65 259H1057.17ZM1182.56 261.254C1170.53 261.254 1160.39 259.15 1152.12 254.942C1144.01 250.735 1137.77 244.798 1133.41 237.134C1129.21 229.47 1126.8 220.528 1126.2 210.309C1126.05 207.604 1125.98 204.298 1125.98 200.39C1125.98 196.483 1126.05 193.177 1126.2 190.472C1126.8 180.102 1129.28 171.161 1133.64 163.647C1138.15 155.982 1144.46 150.046 1152.58 145.838C1160.84 141.63 1170.83 139.526 1182.56 139.526C1194.28 139.526 1204.2 141.63 1212.31 145.838C1220.58 150.046 1226.89 155.982 1231.25 163.647C1235.76 171.161 1238.31 180.102 1238.91 190.472C1239.06 193.177 1239.14 196.483 1239.14 200.39C1239.14 204.298 1239.06 207.604 1238.91 210.309C1238.31 220.528 1235.83 229.47 1231.47 237.134C1227.27 244.798 1221.03 250.735 1212.76 254.942C1204.65 259.15 1194.58 261.254 1182.56 261.254ZM1182.56 238.937C1190.52 238.937 1196.68 236.458 1201.04 231.499C1205.4 226.389 1207.8 218.95 1208.25 209.182C1208.4 206.928 1208.48 203.997 1208.48 200.39C1208.48 196.784 1208.4 193.853 1208.25 191.599C1207.8 181.981 1205.4 174.617 1201.04 169.508C1196.68 164.398 1190.52 161.843 1182.56 161.843C1174.59 161.843 1168.43 164.398 1164.07 169.508C1159.71 174.617 1157.31 181.981 1156.86 191.599C1156.71 193.853 1156.63 196.784 1156.63 200.39C1156.63 203.997 1156.71 206.928 1156.86 209.182C1157.31 218.95 1159.71 226.389 1164.07 231.499C1168.43 236.458 1174.59 238.937 1182.56 238.937ZM1314.83 261.254C1304.01 261.254 1294.47 259.225 1286.2 255.168C1278.09 251.11 1271.7 245.249 1267.04 237.585C1262.54 229.77 1260.06 220.378 1259.6 209.407C1259.45 207.153 1259.38 204.223 1259.38 200.616C1259.38 196.859 1259.45 193.778 1259.6 191.373C1260.06 180.403 1262.54 171.085 1267.04 163.421C1271.7 155.607 1278.09 149.67 1286.2 145.613C1294.47 141.555 1304.01 139.526 1314.83 139.526C1324.45 139.526 1332.64 140.879 1339.4 143.584C1346.17 146.289 1351.73 149.67 1356.09 153.728C1360.44 157.786 1363.67 162.069 1365.78 166.577C1368.03 170.935 1369.24 174.918 1369.39 178.524C1369.54 180.178 1369.01 181.53 1367.81 182.582C1366.76 183.484 1365.48 183.935 1363.98 183.935H1344.14C1342.64 183.935 1341.43 183.559 1340.53 182.807C1339.78 182.056 1339.03 180.929 1338.28 179.426C1336.02 173.415 1333.02 169.207 1329.26 166.802C1325.65 164.248 1320.99 162.97 1315.28 162.97C1307.77 162.97 1301.76 165.375 1297.25 170.184C1292.89 174.843 1290.56 182.281 1290.26 192.501C1289.96 198.211 1289.96 203.471 1290.26 208.28C1290.56 218.649 1292.89 226.164 1297.25 230.822C1301.76 235.481 1307.77 237.81 1315.28 237.81C1321.15 237.81 1325.88 236.608 1329.49 234.204C1333.09 231.649 1336.02 227.366 1338.28 221.355C1339.03 219.852 1339.78 218.725 1340.53 217.973C1341.43 217.222 1342.64 216.846 1344.14 216.846H1363.98C1365.48 216.846 1366.76 217.372 1367.81 218.424C1369.01 219.326 1369.54 220.603 1369.39 222.256C1369.24 224.961 1368.48 228.042 1367.13 231.499C1365.93 234.805 1363.9 238.261 1361.04 241.868C1358.34 245.324 1354.88 248.555 1350.68 251.561C1346.47 254.416 1341.36 256.746 1335.35 258.549C1329.49 260.353 1322.65 261.254 1314.83 261.254ZM1436.4 261.254C1427.23 261.254 1419.27 259.225 1412.51 255.168C1405.89 250.96 1400.78 245.099 1397.18 237.585C1393.57 229.921 1391.77 220.904 1391.77 210.534V147.191C1391.77 145.688 1392.29 144.411 1393.35 143.359C1394.4 142.307 1395.67 141.781 1397.18 141.781H1417.01C1418.67 141.781 1419.94 142.307 1420.85 143.359C1421.9 144.411 1422.42 145.688 1422.42 147.191V209.182C1422.42 227.817 1430.61 237.134 1447 237.134C1454.81 237.134 1460.97 234.654 1465.48 229.695C1470.14 224.736 1472.47 217.898 1472.47 209.182V147.191C1472.47 145.688 1472.99 144.411 1474.05 143.359C1475.1 142.307 1476.38 141.781 1477.88 141.781H1497.72C1499.22 141.781 1500.5 142.307 1501.55 143.359C1502.6 144.411 1503.13 145.688 1503.13 147.191V253.59C1503.13 255.093 1502.6 256.37 1501.55 257.422C1500.5 258.474 1499.22 259 1497.72 259H1479.46C1477.8 259 1476.45 258.474 1475.4 257.422C1474.5 256.37 1474.05 255.093 1474.05 253.59V244.348C1469.99 249.607 1464.95 253.74 1458.94 256.746C1452.93 259.751 1445.42 261.254 1436.4 261.254ZM1577.31 261.254C1568.29 261.254 1560.55 260.202 1554.09 258.098C1547.78 255.994 1542.6 253.364 1538.54 250.209C1534.48 247.053 1531.47 243.897 1529.52 240.741C1527.57 237.585 1526.52 234.955 1526.37 232.851C1526.21 231.198 1526.67 229.921 1527.72 229.019C1528.92 227.967 1530.2 227.441 1531.55 227.441H1549.36C1549.96 227.441 1550.49 227.516 1550.94 227.666C1551.39 227.817 1551.99 228.267 1552.74 229.019C1554.69 230.672 1556.72 232.4 1558.83 234.204C1561.08 236.007 1563.71 237.585 1566.72 238.937C1569.72 240.14 1573.48 240.741 1577.99 240.741C1583.85 240.741 1588.73 239.614 1592.64 237.36C1596.7 234.955 1598.73 231.574 1598.73 227.216C1598.73 224.06 1597.82 221.505 1596.02 219.551C1594.37 217.598 1591.21 215.869 1586.55 214.366C1581.89 212.713 1575.28 210.985 1566.72 209.182C1558.3 207.228 1551.31 204.748 1545.75 201.743C1540.19 198.737 1536.06 194.98 1533.35 190.472C1530.65 185.963 1529.3 180.703 1529.3 174.692C1529.3 168.831 1531.02 163.271 1534.48 158.011C1538.09 152.601 1543.35 148.168 1550.26 144.711C1557.32 141.255 1566.04 139.526 1576.41 139.526C1584.52 139.526 1591.59 140.578 1597.6 142.682C1603.61 144.636 1608.57 147.116 1612.48 150.121C1616.53 153.127 1619.61 156.208 1621.72 159.364C1623.82 162.369 1624.95 164.999 1625.1 167.253C1625.25 168.906 1624.8 170.259 1623.75 171.311C1622.7 172.213 1621.49 172.663 1620.14 172.663H1603.46C1602.71 172.663 1602.03 172.513 1601.43 172.213C1600.83 171.912 1600.23 171.536 1599.63 171.085C1597.97 169.583 1596.17 168.005 1594.22 166.352C1592.26 164.699 1589.86 163.271 1587 162.069C1584.3 160.716 1580.69 160.04 1576.18 160.04C1570.47 160.04 1566.11 161.317 1563.11 163.872C1560.1 166.276 1558.6 169.357 1558.6 173.114C1558.6 175.669 1559.28 177.923 1560.63 179.877C1562.13 181.68 1565.06 183.409 1569.42 185.062C1573.78 186.715 1580.39 188.443 1589.26 190.246C1599.33 192.05 1607.29 194.755 1613.15 198.362C1619.16 201.818 1623.37 205.876 1625.78 210.534C1628.33 215.043 1629.61 220.077 1629.61 225.638C1629.61 232.4 1627.58 238.487 1623.52 243.897C1619.61 249.307 1613.75 253.59 1605.94 256.746C1598.27 259.751 1588.73 261.254 1577.31 261.254Z" fill="white"/>
<path d="M337 182.23C337 220.506 331.799 252.75 321.398 278.961C310.997 305.172 295.395 325.351 274.593 339.496C253.79 353.226 228.203 361.131 197.831 363.211C188.262 363.627 178.485 363.835 168.5 363.835C158.099 363.835 148.322 363.627 139.169 363.211C108.381 361.131 82.7938 352.602 62.4074 337.624C41.6049 322.646 26.0031 302.052 15.6019 275.841C5.20063 249.63 1.58219e-06 218.426 0 182.23C-1.58219e-06 146.033 5.20062 114.83 15.6019 88.6185C26.0031 62.4074 41.6049 41.813 62.4074 26.8352C82.7938 11.8574 108.381 3.32842 139.169 1.24817C148.322 0.416057 158.099 4.54652e-07 168.5 0C178.485 -4.36466e-07 188.262 0.416056 197.831 1.24817C228.203 3.32841 253.79 11.4414 274.593 25.587C295.395 39.3167 310.997 59.287 321.398 85.4982C331.799 111.709 337 143.953 337 182.23ZM237.148 182.23C237.148 170.164 233.82 162.675 227.163 159.763C220.09 156.851 209.273 154.978 194.711 154.146C188.47 153.73 179.733 153.522 168.5 153.522C157.267 153.522 148.53 153.73 142.289 154.146C128.559 154.978 118.158 156.851 111.085 159.763C103.596 162.675 99.8519 170.164 99.8519 182.23C99.8519 193.879 103.596 201.368 111.085 204.696C118.158 207.609 128.559 209.481 142.289 210.313C148.53 210.729 157.267 210.937 168.5 210.937C179.733 210.937 188.47 210.729 194.711 210.313C209.273 209.481 220.09 207.609 227.163 204.696C233.82 201.368 237.148 193.879 237.148 182.23Z" fill="white" fill-opacity="0.6"/>
<path d="M303.76 182.234C303.76 212.904 299.593 238.74 291.259 259.742C282.925 280.744 270.423 296.912 253.755 308.246C237.087 319.247 216.585 325.581 192.249 327.248C184.582 327.581 176.748 327.748 168.747 327.748C160.413 327.748 152.579 327.581 145.245 327.248C120.576 325.581 100.074 318.747 83.7393 306.746C67.0711 294.745 54.5699 278.243 46.2358 257.241C37.9017 236.239 33.7346 211.237 33.7346 182.234C33.7346 153.232 37.9017 128.229 46.2358 107.227C54.5699 86.2254 67.0711 69.7239 83.7393 57.7227C100.074 45.7216 120.576 38.8877 145.245 37.2208C152.579 36.5541 160.413 36.2207 168.747 36.2207C176.748 36.2207 184.582 36.5541 192.249 37.2208C216.585 38.8877 237.087 45.3883 253.755 56.7227C270.423 67.7237 282.925 83.7252 291.259 104.727C299.593 125.729 303.76 151.565 303.76 182.234ZM223.752 182.234C223.752 172.567 221.086 166.566 215.752 164.233C210.084 161.899 201.417 160.399 189.749 159.732C184.749 159.399 177.748 159.232 168.747 159.232C159.746 159.232 152.746 159.399 147.745 159.732C136.744 160.399 128.41 161.899 122.743 164.233C116.742 166.566 113.742 172.567 113.742 182.234C113.742 191.569 116.742 197.569 122.743 200.236C128.41 202.57 136.744 204.07 147.745 204.737C152.746 205.07 159.746 205.237 168.747 205.237C177.748 205.237 184.749 205.07 189.749 204.737C201.417 204.07 210.084 202.57 215.752 200.236C221.086 197.569 223.752 191.569 223.752 182.234Z" fill="white" fill-opacity="0.4"/>
<path d="M283.863 182.43C283.863 208.42 280.332 230.314 273.269 248.111C266.207 265.909 255.613 279.61 241.488 289.215C227.363 298.538 209.989 303.905 189.366 305.318C182.869 305.6 176.23 305.742 169.45 305.742C162.388 305.742 155.749 305.6 149.534 305.318C128.629 303.905 111.255 298.114 97.4123 287.944C83.2872 277.774 72.6934 263.79 65.6309 245.993C58.5684 228.195 55.0371 207.007 55.0371 182.43C55.0371 157.852 58.5683 136.665 65.6309 118.867C72.6934 101.069 83.2872 87.0857 97.4123 76.9156C111.255 66.7456 128.629 60.9543 149.534 59.5418C155.749 58.9768 162.388 58.6943 169.45 58.6943C176.23 58.6943 182.869 58.9768 189.366 59.5418C209.989 60.9543 227.363 66.4631 241.488 76.0681C255.613 85.3907 266.207 98.9507 273.269 116.748C280.332 134.546 283.863 156.44 283.863 182.43ZM216.063 182.43C216.063 174.237 213.803 169.152 209.283 167.175C204.48 165.197 197.135 163.926 187.248 163.361C183.01 163.079 177.078 162.937 169.45 162.937C161.823 162.937 155.89 163.079 151.652 163.361C142.33 163.926 135.267 165.197 130.465 167.175C125.38 169.152 122.837 174.237 122.837 182.43C122.837 190.34 125.38 195.425 130.465 197.685C135.267 199.662 142.33 200.934 151.652 201.499C155.89 201.781 161.823 201.922 169.45 201.922C177.078 201.922 183.01 201.781 187.248 201.499C197.135 200.934 204.48 199.662 209.283 197.685C213.803 195.425 216.063 190.34 216.063 182.43Z" fill="white" fill-opacity="0.8"/>
</svg>
