<svg width="363" height="425" viewBox="0 0 363 425" fill="none" xmlns="http://www.w3.org/2000/svg">
<path stroke-width="1.4" d="M169.053 339.623L85.325 255.898C78.8187 249.391 68.264 249.391 61.7499 255.898L21.7218 295.923C7.92339 309.717 0.324951 328.12 0.324951 347.737C0.324951 367.353 7.92495 385.756 21.7187 399.558L25.3984 403.233C39.1921 417.027 57.5953 424.623 77.2125 424.623C96.8296 424.623 115.231 417.027 129.03 403.23L169.058 363.198C175.564 356.686 175.564 346.134 169.053 339.623ZM105.456 379.656C97.9562 387.155 87.9249 391.283 77.214 391.283C66.5015 391.283 56.4718 387.153 48.9734 379.656L45.2999 375.981C37.7999 368.48 33.6671 358.448 33.6671 347.737C33.6671 337.025 37.8 326.998 45.2984 319.5L73.539 291.262L133.695 351.414L105.456 379.656Z" fill="currentColor"/>
<path stroke-width="1.4"  d="M119.767 162.327C117.178 178.238 114.505 194.692 105.884 214.3C103.12 220.589 104.497 227.936 109.358 232.797L193.472 316.914C196.677 320.117 200.941 321.798 205.264 321.798C207.833 321.798 210.425 321.206 212.82 319.984C245.17 303.516 280.091 270.717 308.62 229.994C338.358 187.547 357.005 142.917 361.123 104.325C365.103 67.0594 358.93 39.0594 342.781 21.0922C330.775 7.73599 313.731 0.675049 293.494 0.675049C263.242 0.675049 226.173 16.6344 191.787 44.4641C130.923 93.7204 125.505 127.045 119.767 162.327ZM293.495 34.0125C304.313 34.0125 312.323 37.0766 317.989 43.3797C327.411 53.8594 330.862 73.711 327.975 100.784C321.242 163.866 264.652 249.259 208.098 284.388L140.737 217.025C145.322 204.666 148.017 193.478 150 183.155L166.653 199.808C169.909 203.064 174.175 204.692 178.442 204.692C182.708 204.692 186.972 203.064 190.228 199.811C196.738 193.3 196.739 182.747 190.228 176.234L157.428 143.431C163.233 121.572 175.175 100.8 212.764 70.3766C240.9 47.611 271.08 34.0125 293.495 34.0125Z" fill="currentColor"/>
<path stroke-width="1.4" d="M199.608 232.77L200.058 233.217C203.312 236.474 207.58 238.102 211.844 238.102C216.111 238.102 220.377 236.474 223.633 233.217C230.141 226.709 230.141 216.155 223.633 209.641L223.183 209.194C216.675 202.686 206.12 202.686 199.606 209.194C193.1 215.703 193.1 226.258 199.608 232.77Z" fill="currentColor"/>
</svg>
